<svg xmlns="http://www.w3.org/2000/svg" xmlns:xlink="http://www.w3.org/1999/xlink"><defs><symbol viewBox="0 0 19 12" id="arrow-bottom"><defs><path id="arrow-bottom_a" d="M15 13.414L16.414 12l9.207 9.207-8.96 8.961-1.415-1.414 7.547-7.547z" /></defs><use fill="#979797" fill-rule="nonzero" transform="rotate(90 22.31 8.084)" xlink:href="#arrow-bottom_a" /></symbol><symbol viewBox="0 0 11 19" id="arrow-left"><defs><path id="arrow-left_a" d="M14 12.414L15.414 11l9.207 9.207-8.96 8.961-1.415-1.414 7.547-7.547z" /></defs><use fill="#979797" fill-rule="nonzero" transform="matrix(-1 0 0 1 24.621 -11)" xlink:href="#arrow-left_a" /></symbol><symbol viewBox="0 0 16 15" id="arrow-link"><defs><path d="M27.142 19.162l-6.787-6.787 1.414-1.414 9.208 9.207-9.185 9.185-1.415-1.414 6.777-6.777H10.74v-2h16.402z" id="arrow-link_a" /></defs><use fill="#D8D8D8" transform="rotate(-45 -1.334 29.35)" xlink:href="#arrow-link_a" fill-rule="evenodd" /></symbol><symbol viewBox="0 0 11 19" id="arrow-right"><defs><path id="arrow-right_a" d="M16 12.414L17.414 11l9.207 9.207-8.96 8.961-1.415-1.414 7.547-7.547z" /></defs><use transform="translate(-16 -11)" xlink:href="#arrow-right_a" /></symbol><symbol viewBox="0 0 19 12" id="arrow-up"><defs><path id="arrow-up_a" d="M15 10.414L16.414 9l9.207 9.207-8.96 8.961-1.415-1.414 7.547-7.547z" /></defs><use fill="#979797" fill-rule="nonzero" transform="rotate(-90 8.81 17.584)" xlink:href="#arrow-up_a" /></symbol><symbol viewBox="0 0 8 18" id="arrows-slide"><defs><path d="M20 11l4 5.478h-8L20 11zm0 18l-4-5.478h8L20 29z" id="arrows-slide_a" /></defs><use fill="#EAEDF0" xlink:href="#arrows-slide_a" transform="translate(-16 -11)" fill-rule="evenodd" /></symbol><symbol viewBox="0 0 26 25" id="blind"><defs><path d="M15.724 21.607a5.24 5.24 0 0 1-1.2-3.345c0-.933.243-1.81.67-2.57-2.099.573-4.338 1.5-6.718 2.788l-.952-1.76c4.378-2.367 8.373-3.61 11.99-3.713a5.348 5.348 0 0 1 .35-.006L20 13c.97 0 1.966.084 2.991.25l-7.267 8.357zm5.037 1.827a5.264 5.264 0 0 0 4.282-4.924l-4.282 4.924zm6.146-7.067l1.398-1.607c1.35.533 2.74 1.187 4.17 1.96l-.95 1.76c-1.604-.867-3.143-1.571-4.618-2.113zm-13.47 7.87l-1.403 1.614a38.105 38.105 0 0 1-4.51-2.092L8.476 22c1.728.934 3.382 1.68 4.962 2.237zm5.574 1.21c.334.022.664.033.989.033 3.378 0 7.221-1.153 11.524-3.48l.952 1.76C27.9 26.232 23.744 27.48 20 27.48c-.843 0-1.707-.064-2.592-.19l1.603-1.842zm-7.822 6.71L9.68 30.843l19.13-22 1.51 1.312-19.13 22z" id="blind_a" /></defs><use fill="#8C8B89" xlink:href="#blind_a" transform="translate(-7 -8)" fill-rule="evenodd" /></symbol><symbol viewBox="0 0 16 18" id="calendar"><defs><path d="M12 16.5v-2.25a1 1 0 0 1 1-1h2.375v-1.828c0-.232.19-.422.422-.422h1.406c.232 0 .422.19.422.422v1.828h4.5v-1.828c0-.232.19-.422.422-.422h1.406c.232 0 .422.19.422.422v1.828h2.375a1 1 0 0 1 1 1v2.25H12zM27.75 18v11H12V18h15.75zM16.5 24.922a.423.423 0 0 0-.422-.422h-1.406a.423.423 0 0 0-.422.422v1.406c0 .232.19.422.422.422h1.406c.232 0 .422-.19.422-.422v-1.406zm0-4.5a.423.423 0 0 0-.422-.422h-1.406a.423.423 0 0 0-.422.422v1.406c0 .232.19.422.422.422h1.406c.232 0 .422-.19.422-.422v-1.406zm4.5 4.5a.423.423 0 0 0-.422-.422h-1.406a.423.423 0 0 0-.422.422v1.406c0 .232.19.422.422.422h1.406c.232 0 .422-.19.422-.422v-1.406zm0-4.5a.423.423 0 0 0-.422-.422h-1.406a.423.423 0 0 0-.422.422v1.406c0 .232.19.422.422.422h1.406c.232 0 .422-.19.422-.422v-1.406zm4.5 4.5a.423.423 0 0 0-.422-.422h-1.406a.423.423 0 0 0-.422.422v1.406c0 .232.19.422.422.422h1.406c.232 0 .422-.19.422-.422v-1.406zm0-4.5a.423.423 0 0 0-.422-.422h-1.406a.423.423 0 0 0-.422.422v1.406c0 .232.19.422.422.422h1.406c.232 0 .422-.19.422-.422v-1.406z" id="calendar_a" /></defs><use fill="#000" fill-rule="nonzero" xlink:href="#calendar_a" transform="translate(-12 -11)" /></symbol><symbol viewBox="0 0 14 14" id="cancel"><defs><path d="M20 18.586l4.95-4.95 1.414 1.414-4.95 4.95 4.95 4.95-1.414 1.414-4.95-4.95-4.95 4.95-1.414-1.414 4.95-4.95-4.95-4.95 1.414-1.414 4.95 4.95z" id="cancel_a" /></defs><use fill="#D8D8D8" xlink:href="#cancel_a" transform="translate(-13 -13)" fill-rule="evenodd" /></symbol><symbol viewBox="0 0 40 40" id="check"><g fill="none" fill-rule="evenodd"><path d="M26.736 13.862l-8.999 10.724-4.596-3.856-.643.766 5.362 4.5 9.642-11.492-.766-.642z" stroke="#979797" fill="#D8D8D8" /></g></symbol><symbol viewBox="0 0 28 28" id="clock"><g stroke="#000" stroke-width="2" fill="none" fill-rule="evenodd"><path d="M14 27C6.82 27 1 21.18 1 14S6.82 1 14 1s13 5.82 13 13-5.82 13-13 13z" /><path stroke-linejoin="round" d="M8 7l6 8 5-4" /></g></symbol><symbol viewBox="0 0 4 4" id="dot"><defs><circle id="dot_a" cx="20" cy="20" r="2" /></defs><use fill="#D8D8D8" xlink:href="#dot_a" transform="translate(-18 -18)" fill-rule="evenodd" /></symbol><symbol viewBox="0 0 19 16" id="dot-hamburger"><defs><path d="M17 12h13v2H17v-2zm0 7h13v2H17v-2zm0 7h13v2H17v-2zm-6-14h4v2h-4v-2zm0 7h4v2h-4v-2zm0 7h4v2h-4v-2z" id="dot-hamburger_a" /></defs><use fill="#D8D8D8" xlink:href="#dot-hamburger_a" transform="translate(-11 -12)" fill-rule="evenodd" /></symbol><symbol viewBox="0 0 20 27" id="download-file"><defs><path d="M19 26.808V14h2v12.779l3.219-3.219 1.414 1.415-5.647 5.647-5.632-5.632 1.414-1.414L19 26.808zM24 33l2-2h2V8H12v23h2l2 2h-6V6h20v27h-6z" id="download-file_a" /></defs><use fill="#8C8B89" fill-rule="nonzero" xlink:href="#download-file_a" transform="translate(-10 -6)" /></symbol><symbol viewBox="0 0 20 28" id="download-pdf"><defs><path d="M19 28.808V18h2v10.779l3.219-3.219 1.414 1.415-5.647 5.647-5.632-5.632 1.414-1.414L19 28.808zM21 7h-9v24h2l2 2h-6V5h12l8 8v20h-6l2-2h2V14h-7V7z" id="download-pdf_a" /></defs><use fill="#8C8B89" fill-rule="nonzero" xlink:href="#download-pdf_a" transform="translate(-10 -5)" /></symbol><symbol viewBox="0 0 19 23" id="download-simple"><defs><path d="M19 21.832V9h2v12.754L27.754 15l1.414 1.414-9.207 9.207L11 16.661l1.414-1.415L19 21.832zM11 30h18v2H11v-2z" id="download-simple_a" /></defs><path stroke="#979797" d="M1.414 6.953l-.707.707 8.254 8.254 8.5-8.5-.707-.707L9.5 13.961V.5h-1v13.54L1.414 6.952zM.5 21.5v1h17v-1H.5z" fill="none" fill-rule="evenodd" /></symbol><symbol viewBox="0 0 21 19" id="forward"><defs><path d="M20.621 12.414l-7.793 7.793 7.547 7.547-1.414 1.414L10 20.208 19.207 11l1.414 1.414zm10 0l-7.793 7.793 7.547 7.547-1.414 1.414L20 20.208 29.207 11l1.414 1.414z" id="forward_a" /></defs><use fill="#979797" fill-rule="nonzero" transform="matrix(-1 0 0 1 30.621 -11)" xlink:href="#forward_a" /></symbol><symbol viewBox="0 0 16 14" id="hamburger"><defs><path d="M13 13h16v2H13v-2zm0 6h16v2H13v-2zm0 6h16v2H13v-2z" id="hamburger_a" /></defs><use fill="#D8D8D8" xlink:href="#hamburger_a" transform="translate(-13 -13)" fill-rule="evenodd" /></symbol><symbol viewBox="0 0 80 88" id="inbox-message"><defs><path id="inbox-message_a" d="M0 0h80v88H0z" /><filter x="-.6%" y="-.6%" width="101.2%" height="101.1%" filterUnits="objectBoundingBox" id="inbox-message_b"><feOffset dx="1" dy="-1" in="SourceAlpha" result="shadowOffsetInner1"></feOffset><feComposite in="shadowOffsetInner1" in2="SourceAlpha" operator="arithmetic" k2="-1" k3="1" result="shadowInnerInner1"></feComposite><feColorMatrix values="0 0 0 0 0.9 0 0 0 0 0.891 0 0 0 0 0.882 0 0 0 1 0" in="shadowInnerInner1"></feColorMatrix></filter></defs><g fill="none" fill-rule="evenodd"><use fill="#FFF" xlink:href="#inbox-message_a" /><use fill="#000" filter="url(#inbox-message_b)" xlink:href="#inbox-message_a" /><g stroke="#2F3133" stroke-width="2"><path d="M27 36h26v16.667H27z" /><path d="M26.875 39.083l12.833 6.709 13.417-6.125" /></g></g></symbol><symbol viewBox="0 0 24 24" id="info"><defs><path d="M.48 9.943h.482V6.557H.48A.475.475 0 0 1 0 6.088v-1.12C0 4.71.215 4.5.48 4.5h2.693c.266 0 .48.21.48.469v4.974h.482c.265 0 .48.21.48.469v1.12a.475.475 0 0 1-.48.468H.48A.475.475 0 0 1 0 11.531v-1.12c0-.258.215-.468.48-.468zM2.309 0C1.352 0 .577.756.577 1.688c0 .931.775 1.687 1.73 1.687.957 0 1.731-.756 1.731-1.688C4.038.756 3.264 0 2.308 0z" id="info_a" /></defs><g fill="none" fill-rule="evenodd"><circle fill="#F2F0EE" cx="12" cy="12" r="12" /><g transform="translate(10 6)"><mask id="info_b" fill="#fff"><use xlink:href="#info_a" /></mask><use fill="#2B2B2A" fill-rule="nonzero" xlink:href="#info_a" /></g></g></symbol><symbol viewBox="0 0 28 19" id="mail"><g stroke="#2F3133" stroke-width="2" fill="none" fill-rule="evenodd"><path d="M1 1h26v16.667H1z" /><path d="M.875 4.083l12.833 6.709 13.417-6.125" /></g></symbol><symbol viewBox="0 0 16 2" id="minus"><defs><path id="minus_a" d="M12 19h16v2H12z" /></defs><use fill="#D8D8D8" transform="translate(-12 -19)" xlink:href="#minus_a" fill-rule="evenodd" /></symbol><symbol viewBox="0 0 17 26" id="pen"><defs><path d="M6.732 4.124h4v17h-4v-17zm0-5h4v3h-4v-3zm0 24h4l-2 4-2-4z" id="pen_a" /></defs><use fill="#D8D8D8" transform="rotate(30 8.232 11.258)" xlink:href="#pen_a" fill-rule="evenodd" /></symbol><symbol viewBox="0 0 25 23" id="plane"><defs><path d="M21.637 8.165v-.268h.11L22.523 6l.776 1.897h.11v.268l8.637 21.114-9.523-3.175L13 29.28l8.637-21.114zm1.772 4.68v11.687l5.536 1.845-5.536-13.532zm-1.772 11.687V12.845l-5.536 13.532 5.536-1.845z" id="plane_a" /></defs><use fill="#979797" fill-rule="nonzero" transform="rotate(50 29.746 5.134)" xlink:href="#plane_a" /></symbol><symbol viewBox="0 0 60 60" id="play-big"><g fill="none" fill-rule="evenodd"><path d="M30 60C13.431 60 0 46.569 0 30 0 13.431 13.431 0 30 0c16.569 0 30 13.431 30 30 0 16.569-13.431 30-30 30z" fill="#000" opacity=".4" /><path fill="#FFF" d="M41 30l-18 9V21z" /></g></symbol><symbol viewBox="0 0 16 16" id="play-small"><path d="M16 8L0 16V0z" fill="#FFF" fill-rule="evenodd" /></symbol><symbol viewBox="0 0 16 16" id="plus"><defs><path d="M20 18.586l4.95-4.95 1.414 1.414-4.95 4.95 4.95 4.95-1.414 1.414-4.95-4.95-4.95 4.95-1.414-1.414 4.95-4.95-4.95-4.95 1.414-1.414 4.95 4.95z" id="plus_a" /></defs><use fill="#D8D8D8" transform="rotate(45 28.485 -.485)" xlink:href="#plus_a" fill-rule="evenodd" /></symbol><symbol viewBox="0 0 21 19" id="rewind"><defs><path d="M20.621 12.414l-7.793 7.793 7.547 7.547-1.414 1.414L10 20.208 19.207 11l1.414 1.414zm10 0l-7.793 7.793 7.547 7.547-1.414 1.414L20 20.208 29.207 11l1.414 1.414z" id="rewind_a" /></defs><use fill="#979797" fill-rule="nonzero" xlink:href="#rewind_a" transform="translate(-10 -11)" /></symbol><symbol viewBox="0 0 14 14" id="slash"><defs><path id="slash_a" d="M12 19h16v2H12z" /></defs><use fill="#D8D8D8" transform="rotate(45 29.192 -2.192)" xlink:href="#slash_a" fill-rule="evenodd" /></symbol><symbol viewBox="0 0 26 15" id="visible"><defs><path d="M15.07 15.727c-2.062.574-4.26 1.49-6.594 2.753l-.952-1.76c4.156-2.247 7.967-3.482 11.438-3.689a5.054 5.054 0 0 1 .73-.028L20 13c3.744 0 7.901 1.247 12.476 3.72l-.952 1.76c-2.755-1.49-5.322-2.499-7.699-3.032a5 5 0 1 1-8.755.278zM8.476 22c4.303 2.327 8.146 3.48 11.524 3.48 3.378 0 7.221-1.153 11.524-3.48l.952 1.76C27.9 26.232 23.744 27.48 20 27.48c-3.744 0-7.901-1.247-12.476-3.72L8.476 22z" id="visible_a" /></defs><use fill="#8C8B89" xlink:href="#visible_a" transform="translate(-7 -13)" fill-rule="evenodd" /></symbol><symbol viewBox="0 0 28 28" id="zoom-in"><defs><path d="M32 30.586V27h2v7h-7v-2h3.586L24 25.414 25.414 24 32 30.586zM30.586 8H27V6h7v7h-2V9.414l-6.536 6.536-1.414-1.414L30.586 8zM8 30.485L14.485 24l1.414 1.414L9.314 32H13v2H6v-7h2v3.485zM9.464 8L16 14.536l-1.414 1.414L8 9.364V13H6V6h7v2H9.464z" id="zoom-in_a" /></defs><use fill="#D8D8D8" xlink:href="#zoom-in_a" transform="translate(-6 -6)" fill-rule="evenodd" /></symbol><symbol viewBox="0 0 28 28" id="zoom-out"><defs><path d="M14 12.536V8.95h2v7H9v-2h3.586L6.1 7.464 7.515 6.05 14 12.536zM12.485 26H9v-2h7v7h-2v-3.686l-6.586 6.585L6 32.485 12.485 26zM26.05 12.536l6.486-6.486 1.414 1.414-6.486 6.486h3.586v2h-7v-7h2v3.586zM27.414 26l6.485 6.485-1.414 1.414L26 27.414V31h-2v-7h7v2h-3.586z" id="zoom-out_a" /></defs><use fill="#D8D8D8" xlink:href="#zoom-out_a" transform="translate(-6 -6)" fill-rule="evenodd" /></symbol></defs></svg>