<svg width="26px" height="25px" viewBox="0 0 26 25" version="1.1" xmlns="http://www.w3.org/2000/svg" xmlns:xlink="http://www.w3.org/1999/xlink">
    <defs>
        <path d="M15.724198,21.6072347 C14.9746031,20.6979377 14.5243835,19.5326419 14.5243835,18.2621918 C14.5243835,17.3289711 14.7673117,16.4524893 15.1933806,15.6925337 C13.0954511,16.2648007 10.8558842,17.1926739 8.47561648,18.4796528 L7.52438352,16.7203472 C11.901908,14.3534783 15.8968769,13.1096327 19.5141405,13.0069307 C19.6043707,13.0023289 19.695201,13 19.7865753,13 C19.8122609,13 19.8379035,13.000184 19.863502,13.0005508 C19.909062,13.0001836 19.9545614,13 20,13 C20.9693595,13 21.9663443,13.083571 22.9910505,13.2503543 L15.724198,21.6072347 Z M20.7614641,23.434254 C23.1229782,22.991883 24.9286763,20.9721075 25.0430132,18.5104724 L20.761464,23.434254 Z M26.906934,16.3669636 L28.3046023,14.759645 C29.654163,15.2927532 31.0444446,15.9465317 32.4756165,16.7203472 L31.5243835,18.4796528 C29.9213199,17.6128977 28.3820746,16.9090243 26.906934,16.3669636 Z M13.4376399,24.2367764 L12.0336115,25.8514092 C10.5784178,25.2955634 9.07541376,24.5979268 7.52438352,23.7593055 L8.47561648,22 C10.2039238,22.9344726 11.8580511,23.6796182 13.4376399,24.2367764 Z M19.0107877,25.4475319 C19.344841,25.468952 19.6745801,25.4796528 20,25.4796528 C23.3779177,25.4796528 27.2212238,24.3266609 31.5243835,22 L32.4756165,23.7593055 C27.9011754,26.2326446 23.7444816,27.4796528 20,27.4796528 C19.1570397,27.4796528 18.2931888,27.4164552 17.408384,27.290296 L19.0107877,25.4475319 Z M11.1893881,32.1561787 L9.68017709,30.8438213 L28.8106119,8.84382129 L30.3198229,10.1561787 L11.1893881,32.1561787 Z" id="path-1"></path>
    </defs>
    <g id="Symbols" stroke="none" stroke-width="1" fill="none" fill-rule="evenodd">
        <g id="Icon/Eye-Copy" transform="translate(-7.000000, -8.000000)">
            <mask id="mask-2" fill="white">
                <use xlink:href="#path-1"></use>
            </mask>
            <use id="Combined-Shape" fill="#8C8B89" xlink:href="#path-1"></use>
        </g>
    </g>
</svg>