<svg height="40" viewBox="0 0 40 40" width="40" xmlns="http://www.w3.org/2000/svg"><path d="m15.724198 21.6072347c-.7495949-.909297-1.1998145-2.0745928-1.1998145-3.3450429 0-.9332207.2429282-1.8097025.6689971-2.5696581-2.0979295.572267-4.3374964 1.5001402-6.71776412 2.7871191l-.95123296-1.7593056c4.37752448-2.3668689 8.37249338-3.6107145 11.98975698-3.7134165.0902302-.0046018.1810605-.0069307.2724348-.0069307.0256856 0 .0513282.000184.0769267.0005508.04556-.0003672.0910594-.0005508.136498-.0005508.9693595 0 1.9663443.083571 2.9910505.2503543zm5.0372661 1.8270193c2.3615141-.442371 4.1672122-2.4621465 4.2815491-4.9237816l-4.2815492 4.9237816zm6.1454699-7.0672904 1.3976683-1.6073186c1.3495607.5331082 2.7398423 1.1868867 4.1710142 1.9607022l-.951233 1.7593056c-1.6030636-.8667551-3.1423089-1.5706285-4.6174495-2.1126892zm-13.4692941 7.8698128-1.4040284 1.6146328c-1.4551937-.5558458-2.95819774-1.2534824-4.50922798-2.0921037l.95123296-1.7593055c1.72830732.9344726 3.38243462 1.6796182 4.96202342 2.2367764zm5.5731478 1.2107555c.3340533.0214201.6637924.0321209.9892123.0321209 3.3779177 0 7.2212238-1.1529919 11.5243835-3.4796528l.951233 1.7593055c-4.5744411 2.4733391-8.7311349 3.7203473-12.4756165 3.7203473-.8429603 0-1.7068112-.0631976-2.591616-.1893568zm-7.8213996 6.7086468-1.50921101-1.3123574 19.13043481-22.00000001 1.509211 1.31235741z" /></svg>