<svg height="40" viewBox="0 0 40 40" width="40" xmlns="http://www.w3.org/2000/svg"><path d="m12 16.5v-2.25c0-.5522847.4477153-1 1-1h2.375v-1.828125c0-.2320313.1898437-.421875.421875-.421875h1.40625c.2320312 0 .421875.1898437.421875.421875v1.828125h4.5v-1.828125c0-.2320313.1898437-.421875.421875-.421875h1.40625c.2320312 0 .421875.1898437.421875.421875v1.828125h2.375c.5522847 0 1 .4477153 1 1v2.25zm15.75 1.5v11h-15.75v-11zm-11.25 6.921875c0-.2320312-.1898438-.421875-.421875-.421875h-1.40625c-.2320313 0-.421875.1898438-.421875.421875v1.40625c0 .2320313.1898437.421875.421875.421875h1.40625c.2320312 0 .421875-.1898437.421875-.421875zm0-4.5c0-.2320312-.1898438-.421875-.421875-.421875h-1.40625c-.2320313 0-.421875.1898438-.421875.421875v1.40625c0 .2320312.1898437.421875.421875.421875h1.40625c.2320312 0 .421875-.1898438.421875-.421875zm4.5 4.5c0-.2320312-.1898438-.421875-.421875-.421875h-1.40625c-.2320313 0-.421875.1898438-.421875.421875v1.40625c0 .2320313.1898437.421875.421875.421875h1.40625c.2320312 0 .421875-.1898437.421875-.421875zm0-4.5c0-.2320312-.1898438-.421875-.421875-.421875h-1.40625c-.2320313 0-.421875.1898438-.421875.421875v1.40625c0 .2320312.1898437.421875.421875.421875h1.40625c.2320312 0 .421875-.1898438.421875-.421875zm4.5 4.5c0-.2320312-.1898438-.421875-.421875-.421875h-1.40625c-.2320313 0-.421875.1898438-.421875.421875v1.40625c0 .2320313.1898437.421875.421875.421875h1.40625c.2320312 0 .421875-.1898437.421875-.421875zm0-4.5c0-.2320312-.1898438-.421875-.421875-.421875h-1.40625c-.2320313 0-.421875.1898438-.421875.421875v1.40625c0 .2320312.1898437.421875.421875.421875h1.40625c.2320312 0 .421875-.1898438.421875-.421875z" /></svg>