<svg width="24px" height="24px" viewBox="0 0 24 24" version="1.1" xmlns="http://www.w3.org/2000/svg" xmlns:xlink="http://www.w3.org/1999/xlink">
    <defs>
        <path d="M0.480769231,9.94286719 L0.961538462,9.94286719 L0.961538462,6.55713281 L0.480769231,6.55713281 C0.215240385,6.55713281 0,6.34727344 0,6.08838281 L0,4.96875 C0,4.70985937 0.215240385,4.5 0.480769231,4.5 L3.17307692,4.5 C3.43860577,4.5 3.65384615,4.70985937 3.65384615,4.96875 L3.65384615,9.94286719 L4.13461538,9.94286719 C4.40014423,9.94286719 4.61538462,10.1527266 4.61538462,10.4116172 L4.61538462,11.53125 C4.61538462,11.7901406 4.40014423,12 4.13461538,12 L0.480769231,12 C0.215240385,12 0,11.7901406 0,11.53125 L0,10.4116172 C0,10.1527266 0.215240385,9.94286719 0.480769231,9.94286719 Z M2.30769231,0 C1.35180288,0 0.576923077,0.755507813 0.576923077,1.6875 C0.576923077,2.61949219 1.35180288,3.375 2.30769231,3.375 C3.26358173,3.375 4.03846154,2.61949219 4.03846154,1.6875 C4.03846154,0.755507813 3.26355769,0 2.30769231,0 Z" id="path-1"></path>
    </defs>
    <g id="Symbols" stroke="none" stroke-width="1" fill="none" fill-rule="evenodd">
        <g id="Group">
            <circle id="Oval" fill="#F2F0EE" cx="12" cy="12" r="12"></circle>
            <g id="Color" transform="translate(10.000000, 6.000000)">
                <mask id="mask-2" fill="white">
                    <use xlink:href="#path-1"></use>
                </mask>
                <use id="Mask" fill="#2B2B2A" fill-rule="nonzero" xlink:href="#path-1"></use>
                <g id="Base/Primary" mask="url(#mask-2)" fill="#8C8B89">
                    <g transform="translate(-18.000000, -14.000000)" id="Rectangle">
                        <rect x="0" y="0" width="40" height="40"></rect>
                    </g>
                </g>
            </g>
        </g>
    </g>
</svg>