<svg height="40" viewBox="0 0 40 40" width="40" xmlns="http://www.w3.org/2000/svg"><g fill="none" fill-rule="evenodd"><circle cx="20" cy="20" fill="#f2f0ee" r="12"/><path d="m18.4807692 23.9428672h.4807693v-3.3857344h-.4807693c-.2655288 0-.4807692-.2098594-.4807692-.46875v-1.1196328c0-.2588906.2152404-.46875.4807692-.46875h2.6923077c.2655289 0 .4807693.2098594.4807693.46875v4.9741172h.4807692c.2655288 0 .4807692.2098594.4807692.46875v1.1196328c0 .2588906-.2152404.46875-.4807692.46875h-3.6538462c-.2655288 0-.4807692-.2098594-.4807692-.46875v-1.1196328c0-.2588906.2152404-.46875.4807692-.46875zm1.8269231-9.9428672c-.9558894 0-1.7307692.7555078-1.7307692 1.6875s.7748798 1.6875 1.7307692 1.6875 1.7307692-.7555078 1.7307692-1.6875-.7749038-1.6875-1.7307692-1.6875z" /></g></svg>