<?xml version="1.0" encoding="UTF-8"?>
<svg xmlns="http://www.w3.org/2000/svg" xmlns:xlink="http://www.w3.org/1999/xlink" width="3pt" height="3pt" viewBox="0 -2 8 8" version="1.1">
<g id="surface1">
<path style=" stroke:none;fill-rule:nonzero;fill:rgb(0%,0%,0%);fill-opacity:1;" d="M 1.933594 3.769531 L 0.890625 3.769531 C 0.605469 3.769531 0.375 3.539062 0.375 3.257812 L 0.375 0.742188 C 0.375 0.460938 0.605469 0.230469 0.890625 0.230469 L 1.949219 0.230469 C 2.011719 0.230469 2.0625 0.179688 2.0625 0.113281 C 2.0625 0.0507812 2.011719 0 1.949219 0 L 0.890625 0 C 0.480469 0 0.144531 0.332031 0.144531 0.742188 L 0.144531 3.257812 C 0.144531 3.667969 0.480469 4 0.890625 4 L 1.933594 4 C 1.996094 4 2.046875 3.949219 2.046875 3.886719 C 2.046875 3.820312 1.996094 3.769531 1.933594 3.769531 Z M 1.933594 3.769531 "/>
<path style=" stroke:none;fill-rule:nonzero;fill:rgb(0%,0%,0%);fill-opacity:1;" d="M 3.820312 1.917969 L 3.09375 1.191406 C 3.046875 1.144531 2.976562 1.144531 2.929688 1.191406 C 2.882812 1.234375 2.882812 1.308594 2.929688 1.351562 L 3.460938 1.886719 L 1.136719 1.886719 C 1.074219 1.886719 1.023438 1.9375 1.023438 2 C 1.023438 2.066406 1.074219 2.117188 1.136719 2.117188 L 3.460938 2.117188 L 2.929688 2.648438 C 2.882812 2.695312 2.882812 2.765625 2.929688 2.8125 C 2.953125 2.832031 2.980469 2.84375 3.011719 2.84375 C 3.039062 2.84375 3.070312 2.832031 3.089844 2.8125 L 3.820312 2.082031 C 3.863281 2.035156 3.863281 1.964844 3.820312 1.917969 Z M 3.820312 1.917969 "/>
</g>
</svg>
