<svg height="40" viewBox="0 0 40 40" width="40" xmlns="http://www.w3.org/2000/svg"><path d="m15.0699321 15.7265726c-2.0622742.5747171-4.2606737 1.4913112-6.59431562 2.7530802l-.95123296-1.7593056c4.15584118-2.2470077 7.96689188-3.4818547 11.43730218-3.6890365.1847106-.0206868.3724636-.0313107.5626978-.0313107.0563454 0 .1124731.000932.1683685.0027815.1027226-.0018542.2051386-.0027815.307248-.0027815 3.7444816 0 7.9011754 1.2470082 12.4756165 3.7203472l-.951233 1.7593056c-2.7554141-1.4898156-5.3222818-2.4984103-7.6991498-3.0312127.4441066.7469649.6991498 1.6194781.6991498 2.5515599 0 2.7614237-2.2385762 5-5 5-2.7614237 0-5-2.2385763-5-5 0-.818665.1967516-1.5913763.5455486-2.2734274zm-6.59431562 6.2734274c4.30315972 2.3266609 8.14646582 3.4796528 11.52438352 3.4796528s7.2212238-1.1529919 11.5243835-3.4796528l.951233 1.7593055c-4.5744411 2.4733391-8.7311349 3.7203473-12.4756165 3.7203473s-7.9011754-1.2470082-12.47561648-3.7203473z" /></svg>