<svg width="28px" height="28px" viewBox="0 0 28 28" version="1.1" xmlns="http://www.w3.org/2000/svg" xmlns:xlink="http://www.w3.org/1999/xlink">
    <defs>
        <path d="M14,12.5355339 L14,8.94974747 L16,8.94974747 L16,15.9497475 L9,15.9497475 L9,13.9497475 L12.5857864,13.9497475 L6.10050506,7.46446609 L7.51471863,6.05025253 L14,12.5355339 Z M12.4852814,26 L9,26 L9,24 L16,24 L16,31 L14,31 L14,27.3137085 L7.41421356,33.8994949 L6,32.4852814 L12.4852814,26 Z M26.0502525,12.5355339 L32.5355339,6.05025253 L33.9497475,7.46446609 L27.4644661,13.9497475 L31.0502525,13.9497475 L31.0502525,15.9497475 L24.0502525,15.9497475 L24.0502525,8.94974747 L26.0502525,8.94974747 L26.0502525,12.5355339 Z M27.4142136,26 L33.8994949,32.4852814 L32.4852814,33.8994949 L26,27.4142136 L26,31 L24,31 L24,24 L31,24 L31,26 L27.4142136,26 Z" id="path-1"></path>
    </defs>
    <g id="Symbols" stroke="none" stroke-width="1" fill="none" fill-rule="evenodd">
        <g id="Icon/ZoomOut" transform="translate(-6.000000, -6.000000)">
            <mask id="mask-2" fill="white">
                <use xlink:href="#path-1"></use>
            </mask>
            <use id="Mask" fill="#D8D8D8" xlink:href="#path-1"></use>
        </g>
    </g>
</svg>